#N canvas -8 -8 1366 725 12;
#X obj 71 742 vd~ b1;
#X obj 47 405 phasor~;
#X obj 48 585 *~ -1;
#X obj 48 610 +~ 1;
#X obj 148 699 sig~ 1;
#X obj 213 707 cos~;
#X obj 149 732 -~;
#X obj 150 757 *~ 0.5;
#X obj 71 786 *~;
#X obj 125 910 dac~;
#X obj 79 672 samphold~;
#X obj 48 699 *~;
#X obj 80 644 sig~;
#X floatatom 157 384 5 0 0 0 - - -;
#X floatatom 110 307 10 0 0 0 - - -;
#X floatatom 79 367 5 0 0 0 - - -;
#X floatatom 241 233 5 0 0 0 - - -;
#X obj 241 254 t b f;
#X obj 125 869 *~;
#X obj 157 358 / 44.1;
#X obj 458 722 vd~ b1;
#X obj 434 554 *~ -1;
#X obj 435 587 +~ 1;
#X obj 528 683 sig~ 1;
#X obj 592 690 cos~;
#X obj 529 714 -~;
#X obj 530 739 *~ 0.5;
#X obj 457 771 *~;
#X obj 469 652 samphold~;
#X obj 435 679 *~;
#X obj 470 624 sig~;
#X obj 455 467 +~ 0.5;
#X obj 455 489 wrap~;
#X obj 96 26 vsl 15 128 100 30000 0 0 empty empty empty 0 -8 0 8 -262144
-1 -1 0 1;
#X obj 108 171 t b f;
#X obj 241 153 vsl 15 73 -36 36 0 0 empty empty empty 0 -8 0 8 -262144
-1 -1 0 1;
#X obj 110 328 expr (pow(2 \, ($f2/12)) - 1) * (44100/$f1);
#X floatatom 144 825 5 0 0 0 - - -;
#X text 258 217 -36;
#X text 264 145 36;
#X text 127 28 30000;
#X text 125 152 100;
#X text 73 7 window width;
#X obj 500 198 delwrite~ b1 3000;
#X text 192 804 Volume;
#X text 354 36 Granular live;
#X text 183 121 Transposition (half-steps);
#X obj 511 68 openpanel;
#X msg 502 103 open \$1;
#X obj 525 141 readsf~;
#X obj 510 35 bng 15 250 50 0 empty empty empty 17 7 0 10 -262144 -1
-1;
#X msg 455 79 1;
#X obj 494 167 looper;
#X obj 441 127 tgl 15 0 empty empty empty 17 7 0 10 -262144 -1 -1 0
1;
#X msg 785 84 devices;
#X msg 869 85 open 7;
#X floatatom 834 225 5 0 0 0 - - -;
#X obj 859 148 comport 115200;
#X msg 934 103 close;
#X text 1002 69 SERIAL;
#X obj 859 289 print;
#X msg 729 334 pollintervall 100;
#X connect 0 0 8 0;
#X connect 1 0 2 0;
#X connect 1 0 5 0;
#X connect 1 0 10 1;
#X connect 1 0 31 0;
#X connect 2 0 3 0;
#X connect 3 0 11 0;
#X connect 4 0 6 0;
#X connect 5 0 6 1;
#X connect 6 0 7 0;
#X connect 7 0 8 1;
#X connect 8 0 18 0;
#X connect 10 0 11 1;
#X connect 11 0 0 0;
#X connect 12 0 10 0;
#X connect 13 0 30 0;
#X connect 13 0 12 0;
#X connect 14 0 19 0;
#X connect 14 0 36 0;
#X connect 15 0 1 0;
#X connect 16 0 17 0;
#X connect 17 0 14 0;
#X connect 17 1 36 1;
#X connect 18 0 9 0;
#X connect 18 0 9 1;
#X connect 19 0 13 0;
#X connect 20 0 27 0;
#X connect 21 0 22 0;
#X connect 22 0 29 0;
#X connect 23 0 25 0;
#X connect 24 0 25 1;
#X connect 25 0 26 0;
#X connect 26 0 27 1;
#X connect 27 0 18 0;
#X connect 28 0 29 1;
#X connect 29 0 20 0;
#X connect 30 0 28 0;
#X connect 31 0 32 0;
#X connect 32 0 21 0;
#X connect 32 0 28 1;
#X connect 32 0 24 0;
#X connect 33 0 34 0;
#X connect 34 0 16 0;
#X connect 34 1 14 0;
#X connect 35 0 16 0;
#X connect 36 0 15 0;
#X connect 37 0 18 1;
#X connect 47 0 48 0;
#X connect 48 0 49 0;
#X connect 49 0 52 0;
#X connect 50 0 47 0;
#X connect 51 0 49 0;
#X connect 51 0 53 0;
#X connect 52 0 43 0;
#X connect 53 0 52 1;
#X connect 54 0 57 0;
#X connect 55 0 57 0;
#X connect 57 0 56 0;
#X connect 57 0 60 0;
#X connect 58 0 57 0;
