#N canvas -46 0 1366 725 12;
#X msg 41 99 devices;
#X msg 264 203 open 7;
#X floatatom 97 212 5 0 0 0 - - -;
#X obj 94 124 comport 115200;
#X msg 222 88 close;
#X obj 890 140 udpreceive 9001;
#X obj 898 204 unpackOSC;
#X floatatom 1073 462 5 0 0 0 - - -;
#X obj 891 331 routeOSC /slider2 /slider3;
#X floatatom 1214 458 5 0 0 0 - - -;
#X text 108 32 SERIAL;
#X floatatom 911 466 5 0 0 0 - - -;
#X text 947 93 OSC;
#X text 1063 134 PORTA 9001;
#X text 1131 273 main adress;
#X text 1118 334 adress;
#X obj 890 272 routeOSC /oscControl;
#X obj 500 198 delwrite~ b1 3000;
#X text 576 33 Granular live;
#X obj 511 68 openpanel;
#X msg 502 103 open \$1;
#X obj 525 141 readsf~;
#X obj 505 40 bng 15 250 50 0 empty empty empty 17 7 0 10 -262144 -1
-1;
#X msg 455 79 1;
#X obj 494 167 looper;
#X obj 441 127 tgl 15 0 empty empty empty 17 7 0 10 -262144 -1 -1 0
1;
#X obj 213 397 addictive;
#X obj 537 400 granular;
#X text 63 383 Inlet 1 Fundamental;
#X text 69 404 Inlet 2 Carrier;
#X text 339 373 window width;
#X text 317 399 Transposition (half-steps);
#X text 192 804 Volume;
#X text 202 814 Volume;
#X text 212 824 Volume;
#X text 222 834 Volume;
#X text 232 844 Volume;
#X text 368 436 Volume;
#X text 80 324 Synth Engine;
#X connect 0 0 3 0;
#X connect 1 0 3 0;
#X connect 3 0 2 0;
#X connect 4 0 3 0;
#X connect 5 0 6 0;
#X connect 6 0 16 0;
#X connect 8 0 11 0;
#X connect 8 1 7 0;
#X connect 8 2 9 0;
#X connect 16 0 8 0;
#X connect 19 0 20 0;
#X connect 20 0 21 0;
#X connect 21 0 24 0;
#X connect 22 0 19 0;
#X connect 23 0 21 0;
#X connect 23 0 25 0;
#X connect 24 0 17 0;
#X connect 25 0 24 1;
