#N canvas 723 105 1160 929 10;
#X obj 68 72 comport 0 9600;
#X msg 10 33 devices;
#X msg 73 34 open 0;
#X floatatom 68 97 5 0 0 0 - - -;
#X obj 197 124 sel 13 10;
#X obj 38 100 bng 15 250 50 0 empty empty empty 17 7 0 10 -262144 -1
-1;
#X obj 237 149 bng 15 250 50 0 empty empty empty 17 7 0 10 -262144
-1 -1;
#X obj 206 149 bng 15 250 50 0 empty empty empty 17 7 0 10 -262144
-1 -1;
#X obj 288 252 list prepend;
#X obj 286 279 t l l;
#X obj 265 309 list;
#X obj 268 363 list tosymbol;
#X obj 268 420 float;
#X floatatom 581 33 5 0 0 0 Float> - -;
#X symbolatom 268 394 10 0 0 0 symbol> - -;
#X obj 249 229 t b b;
#X floatatom 288 171 5 0 0 0 - - -;
#X obj 288 206 float;
#X floatatom 630 114 0 0 0 0 lenght_of_float - -;
#X obj 662 90 i;
#X obj 662 66 log 10;
#X floatatom 671 199 5 0 0 0 - - -;
#X obj 671 169 pow;
#X obj 661 115 t b f;
#X obj 302 336 print bytes-arduino:;
#X msg 661 142 10;
#X floatatom 579 272 5 0 0 0 sensor - -;
#X obj 611 234 div;
#X obj 644 233 mod;
#X floatatom 680 272 5 0 0 0 value - -;
#X floatatom 268 448 5 0 0 0 Float_FROM_SERIAL> - -;
#X obj 579 378 sel 1 2 3 4 5 6 7 8;
#X obj 593 328 hradio 15 1 0 8 empty empty empty 0 -8 0 10 -262144
-1 -1 6;
#X obj 593 306 - 1;
#X floatatom 781 552 5 0 0 0 - - -;
#X obj 973 904 bng 15 250 50 0 empty empty empty 17 7 0 10 -262144
-1 -1;
#X msg 562 417 1;
#X floatatom 488 457 5 0 0 0 - - -;
#X obj 562 441 expr $i2 \;, f 10;
#X msg 592 467 1;
#X floatatom 489 507 5 0 0 0 - - -;
#X obj 592 491 expr $i2 \;, f 10;
#X msg 607 524 1;
#X floatatom 492 564 5 0 0 0 - - -;
#X obj 607 548 expr $i2 \;, f 10;
#X msg 620 580 1;
#X floatatom 493 620 5 0 0 0 - - -;
#X obj 620 604 expr $i2 \;, f 10;
#X msg 635 635 1;
#X floatatom 493 675 5 0 0 0 - - -;
#X obj 635 659 expr $i2 \;, f 10;
#X msg 648 687 1;
#X floatatom 494 727 5 0 0 0 - - -;
#X obj 648 711 expr $i2 \;, f 10;
#X msg 665 737 1;
#X floatatom 494 777 5 0 0 0 - - -;
#X obj 665 761 expr $i2 \;, f 10;
#X msg 676 790 1;
#X floatatom 495 830 5 0 0 0 - - -;
#X obj 677 814 expr $i2 \;, f 10;
#X msg 129 34 close;
#X connect 0 0 3 0;
#X connect 0 0 5 0;
#X connect 1 0 0 0;
#X connect 2 0 0 0;
#X connect 3 0 4 0;
#X connect 4 1 7 0;
#X connect 4 1 15 0;
#X connect 4 2 6 0;
#X connect 4 2 16 0;
#X connect 8 0 9 0;
#X connect 9 0 10 1;
#X connect 9 1 8 1;
#X connect 10 0 11 0;
#X connect 10 0 24 0;
#X connect 11 0 14 0;
#X connect 12 0 13 0;
#X connect 12 0 30 0;
#X connect 13 0 20 0;
#X connect 13 0 27 0;
#X connect 13 0 28 0;
#X connect 14 0 12 0;
#X connect 15 0 10 0;
#X connect 15 1 8 1;
#X connect 16 0 17 0;
#X connect 17 0 8 0;
#X connect 19 0 18 0;
#X connect 19 0 23 0;
#X connect 20 0 19 0;
#X connect 21 0 27 1;
#X connect 21 0 28 1;
#X connect 22 0 21 0;
#X connect 23 0 25 0;
#X connect 23 1 22 1;
#X connect 25 0 22 0;
#X connect 26 0 31 0;
#X connect 26 0 33 0;
#X connect 27 0 26 0;
#X connect 28 0 29 0;
#X connect 29 0 34 0;
#X connect 31 0 36 0;
#X connect 31 1 39 0;
#X connect 31 2 42 0;
#X connect 31 3 45 0;
#X connect 31 4 48 0;
#X connect 31 5 51 0;
#X connect 31 6 54 0;
#X connect 31 7 57 0;
#X connect 33 0 32 0;
#X connect 34 0 38 1;
#X connect 34 0 41 1;
#X connect 34 0 44 1;
#X connect 34 0 47 1;
#X connect 34 0 50 1;
#X connect 34 0 53 1;
#X connect 34 0 56 1;
#X connect 34 0 59 1;
#X connect 36 0 38 0;
#X connect 38 0 37 0;
#X connect 39 0 41 0;
#X connect 41 0 40 0;
#X connect 42 0 44 0;
#X connect 44 0 43 0;
#X connect 45 0 47 0;
#X connect 47 0 46 0;
#X connect 48 0 50 0;
#X connect 50 0 49 0;
#X connect 51 0 53 0;
#X connect 53 0 52 0;
#X connect 54 0 56 0;
#X connect 56 0 55 0;
#X connect 57 0 59 0;
#X connect 59 0 58 0;
#X connect 60 0 0 0;
